<svg xmlns="http://www.w3.org/2000/svg" data-name="Слой 1" viewBox="0 0 100 125" x="0px" y="0px"><title>hedgehog</title><path d="M59.93246,56.8077c-1.00171-.0399-1.87341.59871-2.8793,0.556a0.47037,0.47037,0,0,0-.25766.1987c0.54924,1.01014-.49394.835-0.84974,1.04036a12.52233,12.52233,0,0,0-2.36489,1.19992c0.44528-.90441-0.034-1.07377-0.67849-1.23984-0.44858-.1156-0.67578-0.44105-0.22615-0.88749,0.308-.30586.50555-0.64434,0.06276-1.02574a0.50893,0.50893,0,0,1-.01111-0.737c0.26993-.48106.29162-0.87408-0.479-0.6827a0.34882,0.34882,0,0,1-.46938-0.18829,0.48789,0.48789,0,0,1,.17919-0.492,5.44424,5.44424,0,0,0,.503-0.40176c0.20166-.26214.80523-0.45661,0.44949-0.83965a0.96446,0.96446,0,0,0-1.18311-.05782,1.9868,1.9868,0,0,1-1.4682.47442,25.31365,25.31365,0,0,1,3.1104-2.03306c-0.615-.72582-1.07341.5069-1.6677,0.23112l-0.052-.05392a9.30047,9.30047,0,0,1,2.8557-2.48862c-1.80362.51123-3.03441,1.9168-4.53532,2.89338l0.04009-.03512c-0.66141.41215-1.204-.35786-1.8458-0.19162a0.24984,0.24984,0,0,1-.18158-0.15761,0.44787,0.44787,0,0,1,.32269-0.38224,27.23877,27.23877,0,0,0,2.45165-1.91334,3.05861,3.05861,0,0,0-1.87951.90149,3.70322,3.70322,0,0,1-1.71117.85444,0.52867,0.52867,0,0,1-.64154-0.24853c-0.09957-.27012.202-0.36156,0.36467-0.46174a16.56822,16.56822,0,0,0,3.64324-2.51273,44.45719,44.45719,0,0,1,4.09182-3.86916c-1.35046,1.03378-2.99433,1.66582-4.05073,3.08967a2.98,2.98,0,0,1-.9407.7435A26.29386,26.29386,0,0,0,46.972,49.933c-0.60578.44719-1.17546,1.3365-2.13737,0.50826a0.69273,0.69273,0,0,0-.61181.05761c-0.66034.41127-.78721-0.26571-1.02224-0.536-0.316-.36352.04987-0.5887,0.362-0.75544a0.18226,0.18226,0,0,0,.07521-0.05345c0.19563-.34682,1.005-0.46248.67034-0.89276-0.23947-.30791-0.56071.38523-0.87992,0.58039-0.10485.06412-.1847,0.17135-0.29212,0.22866-0.23271.12419-.47837,0.35929-0.70605-0.014-0.18768-.30777.03615-0.42689,0.24018-0.58826,0.60542-.47877,1.19547-0.977,1.92663-1.57879a2.67025,2.67025,0,0,0-1.49515.78349,4.11922,4.11922,0,0,1-.71527.58533,0.86743,0.86743,0,0,1-1.05957-.10718c-0.2847-.2857.0079-0.5553,0.20671-0.79708,0.2552-.31036.49406-0.63414,0.74245-0.95534-0.11279-.19353-0.27239-0.1-0.38368-0.04308a0.39989,0.39989,0,0,1-.578-0.04413c-0.19618-.24876.01832-0.409,0.15283-0.558,0.68557-.75929,1.37664-1.51385,2.08028-2.25631a3.3561,3.3561,0,0,0,.60794-0.663A3.75613,3.75613,0,0,0,42.64417,43.836a3.11954,3.11954,0,0,1-.86979.52161c-0.30412.12647-.58821-0.08277-0.49961-0.3123a7.48519,7.48519,0,0,0,.05053-1.38652c0.29918-.66665-0.12229-1.62927.96444-1.99577-0.70544-.21942-1.16738-0.70817-1.75836-0.22435A0.24253,0.24253,0,0,1,40.1551,40.302a0.42318,0.42318,0,0,1,.23795-0.54057,19.04994,19.04994,0,0,0,2.58631-2.40594,0.49016,0.49016,0,0,0,.23931-0.53644c-0.94919.80354-1.86241,1.588-2.79089,2.35394-0.21079.17389-.44591,0.61129-0.74662,0.23647-0.1969-.24544.21206-0.41914,0.35167-0.62874a2.92848,2.92848,0,0,1,1.787-1.26623c-1.10819-.6707-1.58846.21351-2.18295,0.747-0.24773-.43377.20569-0.65431,0.17787-1.05793a1.49922,1.49922,0,0,0-.99114,1.01987c-0.14805.28034-.32376,0.55163-0.61054,0.37046-0.36249-.229-0.05443-0.523.13622-0.67654,0.86255-.69479.9379-1.90524,1.859-2.551L40.03168,35.193c-0.4377.34-.87892,0.67558-1.31142,1.022a3.7259,3.7259,0,0,1-.5585.48693c-0.327.16412-.66583,0.69744-1.03335,0.302-0.41029-.44157.19511-0.70171,0.42629-0.94706,0.63419-.673.81252-1.59451,1.45971-2.29329,1.32845-1.43432,2.74964-2.76,4.19587-4.06475,0.18388-.16589.44361-0.44911,0.72522-0.1922,0.29772,0.27158.013,0.49838-.15793,0.7077a0.28986,0.28986,0,0,0-.0863.32554c0.26522,0.66829.111,1.05082-.71092,1.311a3.21115,3.21115,0,0,0-1.56617,1.04746c-0.82085.952-1.81675,1.753-2.64737,2.74478,0.957-.67113,1.93234-1.31787,2.86644-2.01949a39.42368,39.42368,0,0,0,3.54557-2.81507c0.5015-.47547.73585,0.20283,1.04662,0.40576,0.43508,0.28412.00949,0.45345-.17034,0.6056a0.79748,0.79748,0,0,0-.511.739c0.85964-.49927,1.8605-0.26276,2.67989-0.80029a0.39726,0.39726,0,0,1,.58231-0.00725,0.3382,0.3382,0,0,1-.07812.5572c-0.59046.279-.28971,0.97023-0.68215,1.35051-0.21081.20426,0.05069,0.29764,0.24106,0.31762a1.08518,1.08518,0,0,0,.58523-0.24694,0.88183,0.88183,0,0,1,1.041-.02494c0.25181,0.25657-.0697.58277-0.19775,0.8348-0.24614.48451-.56874,0.93019-0.85565,1.38566,0.50537,0.38483.93173-.41543,1.52866,0.04019-0.84043.73709-1.65217,1.44905-2.61051,2.28957a1.74758,1.74758,0,0,0,1.11227-.53565c1.18755-.87659,2.848-0.77875,3.8969-1.92384a0.28214,0.28214,0,0,1,.47594.03672,0.9324,0.9324,0,0,1-.02044.5994c0.01409,1.936-1.66929,2.62041-2.72132,3.767-0.10464.11406-.21666,0.222-0.31368,0.34216-0.07489.09277-.13164,0.20023-0.27573,0.42457,1.01284-.29147,1.3819-1.15384,2.03717-1.65787,0.22773-.17516.41739-0.6466,0.72852-0.38906,0.36749,0.30422-.05393.58144-0.242,0.84867-1.12873,1.60349-2.83717,2.54211-4.31206,3.74424a16.2416,16.2416,0,0,0-2.42829,2.42188,14.31471,14.31471,0,0,0,2.84466-2.04308,37.32269,37.32269,0,0,1,4.96518-3.56881c0.86827-.48976,1.76467-0.05528,2.61582-0.31674a0.44567,0.44567,0,0,1,.33162.26043,0.36786,0.36786,0,0,1-.30132.40735,5.25847,5.25847,0,0,0-1.26681.54837c-1.11527.79491-1.87675,1.96888-3.02119,2.74732A6.88147,6.88147,0,0,0,49.84668,45.731a8.18858,8.18858,0,0,0,2.12508-1.35057c1.09151-.97112,2.35055-1.70721,3.50006-2.59477,0.21773-.16811.50073-0.54,0.76287-0.11554,0.244,0.3952-.21.52184-0.43221,0.67474a7.491,7.491,0,0,1-1.05934.56121c-0.13763.065-.34225,0.082-0.28675,0.27667a0.32,0.32,0,0,0,.44145.21511c0.2018-.07189.40086-0.154,0.59465-0.24534,0.83487-.39371,1.66929-0.78842,2.49922-1.19235a0.43327,0.43327,0,0,1,.58509-0.01191,0.35578,0.35578,0,0,1-.01216.56861c-0.908.7809-.99283,2.22893-2.32,2.71693A3.85836,3.85836,0,0,0,55.1331,46.452a0.338,0.338,0,0,0-.05987.42553,0.33287,0.33287,0,0,0,.48764.06285,8.96,8.96,0,0,1,1.96055-.79c0.55094-.114,1.06617-0.51393,1.6669-0.08465a0.62752,0.62752,0,0,0,.6695-0.21624c0.3351-.22087.65124-0.47044,0.97664-0.70616a0.4,0.4,0,0,1,.644.03574c0.17947,0.25838-.03918.41227-0.20332,0.5342a29.9806,29.9806,0,0,1-3.077,2.2129c-1.17163.65761-1.998,1.7426-3.19742,2.34434-0.52948.26565-.48033,0.94884-0.73706,1.48629,1.34154-.95389,2.67309-1.92237,4.031-2.85234,0.38115-.261.7013-0.78256,1.27676-0.5534a0.93357,0.93357,0,0,1,.678.58245,0.69018,0.69018,0,0,1-.42442.66013,0.49619,0.49619,0,0,0-.35138.41011,6.24833,6.24833,0,0,0,1.46405-.487,0.75243,0.75243,0,0,1,.71238.04427c0.24912,0.20236-.01933.47216,0.01575,0.64953,0.23032,1.16408-.84348,1.47847-1.44368,2.2015a9.51434,9.51434,0,0,0,3.52515-1.48761,17.8233,17.8233,0,0,1,1.80157-.95293,1.765,1.765,0,0,0,1.158-2.51736c-0.60967-2.0299-1.01557-4.11026-1.69635-6.12851a7.39855,7.39855,0,0,1,.38186-5.83759,28.78787,28.78787,0,0,0,1.30874-3.6537,4.29412,4.29412,0,0,0,.08586-0.84864,7.61275,7.61275,0,0,1-1.86132,1.21743,0.75568,0.75568,0,0,1-.938-0.11449,0.60752,0.60752,0,0,1,.06135-0.89983c0.3718-.48871.66979-1.033,1.03125-1.53033,0.30523-.42.17239-0.61276-0.28732-0.66428-0.30737-.03445-0.62615.00633-0.9272-0.05191-0.414-.08006-0.93692.03463-1.03046-0.65238a1.11776,1.11776,0,0,1,.66706-1.48732,11.299,11.299,0,0,1,2.20555-.66234c0.53758-.08967.58507-0.30417,0.21266-0.72808a45.1292,45.1292,0,0,0-4.88314-4.57073,18.76936,18.76936,0,0,1-5.59132-7.65084c-0.863-2.2459.27036-7.06457,2.44757-8.43126a5.48939,5.48939,0,0,1,2.03842-.80856,16.34014,16.34014,0,0,0,2.62777-.51914,1.14713,1.14713,0,0,1,1.5595.27487,0.42066,0.42066,0,0,0,.31987.17123c1.20145-.10979,2.1417.7167,3.2813,0.8961a2.96678,2.96678,0,0,0,2.48761-.6192A7.2684,7.2684,0,0,1,75.719,2.62525,8.71455,8.71455,0,0,1,79.36815,3.47a6.46467,6.46467,0,0,1,2.88627,4.44279,5.17118,5.17118,0,0,1-.36966,3.04484c-0.62675,1.74728-.77432,3.68845-2.08026,5.15931a46.34218,46.34218,0,0,1-5.82,6.04189c-1.83257,1.44016-3.81228,2.66275-5.8604,4.19731a2.64575,2.64575,0,0,0,1.50569-.71059c1.20048-.63521,1.83724-0.5487,2.3577.392A1.98245,1.98245,0,0,1,70.97323,28.414a1.56836,1.56836,0,0,1-.60678.21612c-1.14632.02456-1.17523,0.60334-.74666,1.434a0.6246,0.6246,0,0,1,.066.17388c0.10146,0.585.27036,1.3042-.3183,1.61109-0.6588.34347-.78409-0.497-1.13633-0.82721a4.14029,4.14029,0,0,1-.32194-0.395,13.74277,13.74277,0,0,0-.45024,1.93484c-0.45377,1.14117-.84573,2.29964-1.38245,3.41513a5.70742,5.70742,0,0,0-.26633,4.38657C66.59962,42.877,67.10585,45.481,67.6934,48.0555c0.12433,0.54473.34666,0.51218,0.6962,0.27507a2.69977,2.69977,0,0,1,1.71736-.55671c1.2046,0.061,1.49519.35036,1.3246,1.53149a2.46433,2.46433,0,0,1-.14915.52952c-0.37576.97074-.37794,0.97581,0.637,0.94614a2.56419,2.56419,0,0,1,1.66594.68907,0.65874,0.65874,0,0,1,.08659.98388A5.05512,5.05512,0,0,1,71.703,54.25333c-0.57737.27548-.48821,0.50645-0.236,0.89286,0.10146,0.15544.20016,0.313,0.29272,0.47386a1.21235,1.21235,0,0,1-.7188,1.98963,4.123,4.123,0,0,1-2.19961.16373,8.30637,8.30637,0,0,0-3.49137.18673c-1.18318.28969-1.73678,1.33444-2.63389,2.14849a14.55629,14.55629,0,0,1,1.68839.01146c1.07671,0.12655,1.25012.559,0.5522,1.46979a4.79646,4.79646,0,0,0,1.572.15118c1.11912-.28889,1.26724.63008,1.69925,1.20341a0.23749,0.23749,0,0,1-.10947.38163c-0.60844.07669-1.09793,0.62274-1.8381,0.257a7.61008,7.61008,0,0,0-3.09027-.409c-1.3073-.062-2.60837.02291-3.91119,0.08108a0.49479,0.49479,0,0,0-.59451.30018c0.68634,0.07767,1.3534.18106,2.02435,0.22342,1.48151,0.09353,2.96539.14959,4.4475,0.235a1.31678,1.31678,0,0,1,1.43744.76855,0.75422,0.75422,0,0,0,.70441.35265c0.321,0.06418.75525,0.069,0.79087,0.49034,0.04605,0.54451-.52014.41554-0.81065,0.58051a3.0145,3.0145,0,0,0-.86676.20158,8.60437,8.60437,0,0,0,.513.78c0.15074,0.18594.4504,0.32329,0.30826,0.5978a0.75387,0.75387,0,0,1-.671.23795c-0.43205.0397-.87343,0.01424-1.29758,0.09029-0.25418.04557-.74946-0.37431-0.74277,0.26073a0.70252,0.70252,0,0,0,.81507.79241,1.91958,1.91958,0,0,1,1.33956.15113c0.23617,0.15676.69831,0.17077,0.60492,0.58594-0.09351.41575-.49176,0.27658-0.78673,0.25734-0.40879-.02666-0.87441-0.09828-0.98054.43-0.20166,1.00375-.93667.93006-1.71866,0.85931a1.31434,1.31434,0,0,0,1.06617,1.29789,0.36835,0.36835,0,0,1,.26526.50951c-0.07359.41379-.47956,0.16563-0.73685,0.37251a1.34848,1.34848,0,0,0,1.602.05149c0.16321-.10425.27553-0.40786,0.50234-0.13091a0.44022,0.44022,0,0,1-.13294.65154,1.7654,1.7654,0,0,1-1.55069.36282c-1.413-.28292-2.83576-0.51717-4.2554-0.76649-0.18878-.03315-0.44858-0.20785-0.484.17892a0.39289,0.39289,0,0,0,.37774.44369,3.061,3.061,0,0,0,1.01976.02581,9.69968,9.69968,0,0,1,2.57928.21183,0.51473,0.51473,0,0,1,.55147.51345c-0.0275.363-.32777,0.38388-0.63738,0.33-0.27045-.04709-0.54682-0.0601-0.873-0.09352,0.13783,0.34418.54207,0.57535,0.24637,0.92708a0.71127,0.71127,0,0,1-.86547.09935,24.91107,24.91107,0,0,0-2.54322-.486c-0.58616-.17011-0.92608.47552-1.49654,0.38321a10.66049,10.66049,0,0,0,2.98775.46967,0.93842,0.93842,0,0,1,1.259.618c0.10756,0.8984-.62071,1.22262-1.261,1.57383,0.15,0.41122.99922,0.21526,0.82918,0.81125a1.5101,1.5101,0,0,1-2.00621,1.04724,1.17429,1.17429,0,0,0,.94835.84323c0.258,0.12995.455,0.23473,0.341,0.53477-0.13.34242-.37016,0.176-0.6163,0.114a12.66942,12.66942,0,0,1-3.1488-1.3208,8.18878,8.18878,0,0,0-3.5076-.86537,5.58865,5.58865,0,0,0,.58056.44284,5.07641,5.07641,0,0,0,.75693.34678c1.28529,0.48925,2.45574,1.30656,3.8992,1.34919a0.47592,0.47592,0,0,1,.559.48583c-0.03007.34545-.352,0.29613-0.58607,0.27961a0.74407,0.74407,0,0,0-.86474.306c-0.26223.41361-.70148,0.23342-1.08418,0.06812-0.95579-.41285-1.91614-0.81511-3.06505-1.30235a4.053,4.053,0,0,0,2.00523,1.2813,12.584,12.584,0,0,1,2.50361.94689c0.25415,0.13518.63166,0.27553,0.508,0.67311-0.11564.37176-.48418,0.19207-0.7343,0.20044a5.00921,5.00921,0,0,1-.8949-0.123,2.15552,2.15552,0,0,0,.88552,1.4148c-0.84391-.66792-1.17118,1.07727-1.9669.29187-0.19431.27472,0.37658,0.54073-.00016,0.67063-1.09677.37815-.86854,1.3618-0.90831,2.10438a9.382,9.382,0,0,1-.49986,2.71192c-0.2427.67166-.43387,1.34807-0.61345,2.03674a4.79771,4.79771,0,0,1-3.662,2.87442,19.5562,19.5562,0,0,1-5.71469.00123,3.60534,3.60534,0,0,0-1.20334.05232c-1.10246.18739-1.567-.32634-1.22117-1.39724a1.7241,1.7241,0,0,1,.22181-0.40464c0.40571-.61149.40863-0.96874-0.48557-0.82459a1.20317,1.20317,0,0,1-.55047-0.0669,2.26205,2.26205,0,0,1-1.55968-1.05844c-0.20109-.5257.44967-0.88723,0.768-1.28058a5.3278,5.3278,0,0,1,1.17723-1.04234,7.758,7.758,0,0,0,2.75615-4.39073c0.2672-.81987-0.56355-0.74932-0.93961-0.75008a16.98485,16.98485,0,0,1-3.65481-.5917,12.92361,12.92361,0,0,1-7.8357-5.52078c-2.14926-2.997-3.28886-6.41685-4.4859-9.84155a53.82569,53.82569,0,0,1-1.64511-8.1228,30.07614,30.07614,0,0,0-3.56546-9.89432c-0.50608-.85989-1.22281-1.5482-1.76271-2.38554a13.914,13.914,0,0,1-1.96321-5.51132c-0.10988-.70151-0.173-1.40722-0.221-2.118a2.24955,2.24955,0,0,0-.93845-1.97951,1.55609,1.55609,0,0,1-.44553-1.95169,2.32047,2.32047,0,0,1,1.91215-1.5836,2.13167,2.13167,0,0,1,2.35292,1.07,1.3428,1.3428,0,0,0,1.20337.60084c1.91536,0.183,3.7124.07362,5.15458-1.55456,1.03166-1.16474,1.76428-2.51612,2.6951-3.73746a1.112,1.112,0,0,0-.08616-0.98175,7.69219,7.69219,0,0,1-.25443-4.17438c0.03362-.20423.06667-0.36571,0.3257-0.32516,0.26305,0.04117.23959,0.24587,0.23021,0.42562a3.1462,3.1462,0,0,0,.53515,2.16576c0.09818,0.13065.05138,0.41651,0.31282,0.3425a0.44838,0.44838,0,0,0,.27587-0.43943,16.93032,16.93032,0,0,0-.12374-2.03671c-0.01482-.26194-0.13731-0.749.2865-0.76418,0.482-.01729.32274,0.47416,0.4092,0.78059,0.09338,0.33089-.35493.884,0.15379,0.94642,0.40967,0.0503.26686-.60164,0.43542-0.884a9.45764,9.45764,0,0,1,1.14191-1.39291A0.39073,0.39073,0,0,1,35.113,26.559c0.18238,0.07325.15008,0.24633,0.08,0.39169a1.13891,1.13891,0,0,0-.26139.96989,0.963,0.963,0,0,0,.88648-0.76162c0.05677-.217.148-0.47,0.39643-0.411,0.27334,0.06494.1086,0.36643,0.16285,0.55677,0.08568,0.30063-.32015.54935-0.07717,0.87635a1.88392,1.88392,0,0,0,.66419-0.71888c0.16064-.11463.26531-0.39921,0.52128-0.25376,0.2947,0.16748.19606,0.411,0.04981,0.63791-0.36317.5634-.70621,1.1412-1.09617,1.68537a1.18282,1.18282,0,0,0-.19089,1.06944,33.49016,33.49016,0,0,1,2.25615-2.66048c0.163-.14179.3015-0.31385,0.47266-0.44383,0.24894-.189.54837-0.40182,0.82461-0.11143,0.283,0.29743.04193,0.59308-.168,0.81276a1.01838,1.01838,0,0,0-.34175,1.10325,1.793,1.793,0,0,1-.82094,1.47742c-0.52249.45563-.52076,1.13857-1.07122,1.53262L37.62852,32.468q1.12126-1.35623,2.24288-2.71214c0.17769-.21447.34915-0.43565,0.54263-0.63513a1.54668,1.54668,0,0,1,1.80052-.02786c0.27664,0.28817-.0186.43743-0.14692,0.62138a27.44991,27.44991,0,0,1-2.948,3.09633,29.37988,29.37988,0,0,0-2.089,2.66615c-0.14022.18475-.23435,0.52306-0.54311,0.32864-0.26506-.16691.05691-0.37709,0.06538-0.5766a1.47394,1.47394,0,0,1,.52395-0.7378c0.1064-.15294.36519-0.31488,0.0316-0.51892a0.31959,0.31959,0,0,0-.52543.1305,10.21106,10.21106,0,0,0-.56711,1.25375c-0.10678.32315-.24273,0.656-0.58923,0.52206-0.36752-.14211-0.26522-0.51716-0.06986-0.78922,0.26815-.3735.50439-0.71879-0.08482-1.01369-0.08279-.04144-0.01589-0.30831-0.19727-0.18669a2.55516,2.55516,0,0,1-.63052.31787c0.21279-.64167-0.43851-1.02619-0.40369-1.65807,0.06362-1.15474.683-2.23407,0.39736-3.4277a28.56861,28.56861,0,0,0-.99784,4.1681L32.55578,32.0251a10.16537,10.16537,0,0,0-.2814,3.08529c-1.22035-1.18124.11689-2.735-.8928-3.78308a0.73716,0.73716,0,0,0-.03012.27515c0.55463,1.66175-.15008,2.99048-1.10107,4.26563a8.8421,8.8421,0,0,1-3.52959,2.87185c-1.34389.6158-2.6954,0.21727-3.98759,0.62108a1.0632,1.0632,0,0,0-.78149.51214,2.04306,2.04306,0,0,1-1.34805,1.056c-0.55568.12318-.60337,0.39711-0.46162,0.88367a34.61437,34.61437,0,0,1,.37653,3.48229,10.12378,10.12378,0,0,0,3.12433,5.22064,40.53178,40.53178,0,0,0,4.44816,3.77669c0.27437,0.21081.62843,0.46327,0.3822,0.826-0.21573.31787-.55877-0.01919-0.8483-0.04585-0.82092-.07554-1.13651-1.02893-1.97705-1.09672a2.00614,2.00614,0,0,0,.42547,1.969,11.70659,11.70659,0,0,1,1.524,5.07684,56.14832,56.14832,0,0,0,2.77948,12.1992,21.01258,21.01258,0,0,0,5.81212,8.9579,14.07624,14.07624,0,0,0,7.2787,2.92239,15.44528,15.44528,0,0,0,4.8724-.18457,0.92022,0.92022,0,0,0,.77965-0.41574c0.18748-.3577.41771-0.4422,0.72283-0.15255,0.257,0.244.51525,0.521,0.15743,0.8611a2.23327,2.23327,0,0,0-.58083,1.32725,30.4123,30.4123,0,0,1-1.62032,4.90089,6.02486,6.02486,0,0,1-2.83573,3.18768,2.84774,2.84774,0,0,0-.64339.52266,1.0033,1.0033,0,0,0-.42383.965c0.15256,0.36462.6119,0.15033,0.92262,0.14563,1.55283-.02347,3.08558.3476,4.64424,0.202,2.58545-.24143,3.93789-0.7166,4.62517-2.83366a12.31986,12.31986,0,0,0,.76569-6.23763,1.24255,1.24255,0,0,0-.76433-1.03945,28.29725,28.29725,0,0,1-4.45767-2.83581,0.43694,0.43694,0,0,1-.286-0.43312,0.46623,0.46623,0,0,1,.53606-0.24736,4.67769,4.67769,0,0,1,2.76742.73011A3.61259,3.61259,0,0,0,50.88067,82.212c-0.22345-.0683-0.62531-0.17923-0.49472-0.53531,0.1-.27259.45083-0.16875,0.66394-0.092,0.28352,0.102.59317,0.23219,0.7076-.11477,0.12135-.368-0.29292-0.37722-0.51525-0.49778-0.10794-.05854-0.21612-0.11779-0.32852-0.1667-0.19344-.08416-0.47648-0.13394-0.416-0.40328,0.07125-.31735.34193-0.24009,0.60521-0.22183,0.38591,0.02677.73968,0.43953,1.1435,0.1247,0.15739-.12272.51475,0.05653,0.488-0.28084a0.61147,0.61147,0,0,0-.349-0.51318c-0.38183-.175-1.01375-0.38182-0.80291-0.80547,0.21853-.43913.7672-0.00929,1.1503,0.13537a0.97556,0.97556,0,0,0,.75142.00569,1.43,1.43,0,0,0-.90385-0.54661,0.616,0.616,0,0,1-.25215-0.86c0.13194-.47467.36963-0.26105,0.62258-0.20916q3.62253,0.7432,7.2474,1.47484a0.57132,0.57132,0,0,0,.37621-0.06612,9.9081,9.9081,0,0,0-3.2437-1.01453c-0.4527-.08852-0.90935-0.15706-1.36166-0.24738a0.51924,0.51924,0,0,1-.3295-0.14679c-0.22921-1.2169-1.32445-.5611-1.95511-0.90234-0.20412-.11044-0.55138-0.06478-0.499-0.39677,0.04614-.29244.35625-0.15085,0.55188-0.17067a0.76872,0.76872,0,0,0,.88017-0.427c0.1209-.28764.55333-0.01383,0.85035,0.02892,0.53838,0.0775,1.15035.22307,1.17591-.6595a10.6268,10.6268,0,0,0-1.76829-.43,0.61916,0.61916,0,0,1-.5514-0.40756,0.47252,0.47252,0,0,1,.50373-0.45182,15.00132,15.00132,0,0,1,1.6-.42384c-0.39374-.20683-0.79262-0.40467-1.17865-0.625A0.35732,0.35732,0,0,1,54.96757,71.95a0.40448,0.40448,0,0,1,.43175-0.28282,11.28733,11.28733,0,0,1,1.81365-.00286c0.18932,0.03555.48222,0.36956,0.57817-.06139a0.45823,0.45823,0,0,0-.447-0.58357c-1.06833-.07392-2.002-1.0065-3.16382-0.49849a0.55388,0.55388,0,0,1-.17316-0.12766,1.01287,1.01287,0,0,1,1.15886-.50413c0.79715,0.094,1.60416.10559,2.40719,0.14818,0.16875,0.009.39918,0.11418,0.427-.18108a0.3706,0.3706,0,0,0-.35126-0.372,5.3577,5.3577,0,0,0-1.18841-.11979,0.77487,0.77487,0,0,1-.81855-0.23631c1.143-1.48893,2.94163-1.01871,4.427-1.53328a17.09551,17.09551,0,0,1-4.04217-.33834c-0.26727-.05608-0.83881.11746-0.77257-0.39977,0.05249-.40992.54817-0.21448,0.84846-0.30041a15.61541,15.61541,0,0,1,4.195-.561l-0.02909-.25783c-1.21391,0-2.42843-.02018-3.64129.01535a4.75208,4.75208,0,0,1-.82579.01175,0.564,0.564,0,0,1-.55254-0.62672c0.055-.422.3946-0.394,0.72105-0.27615a0.93842,0.93842,0,0,0,.96774-0.14662c-0.53938-.18284-0.87985-0.45319-0.22966-1.01838a8.55927,8.55927,0,0,1-2.27541-.40709c-0.22151-.08256-0.54887-0.154-0.46874-0.46682,0.08905-.34778.40262-0.22892,0.61648-0.12323,0.96483,0.47686,1.70662-.01424,2.5053-0.57239a1.90271,1.90271,0,0,0-1.33325-.11724,1.66563,1.66563,0,0,0-.437.15291,1.01086,1.01086,0,0,1-1.28761-.04954c-0.39907-.57416.55322-0.48073,0.596-0.89681a0.39835,0.39835,0,0,0-.3817-0.19861,0.39431,0.39431,0,1,1-.06922-0.77448,8.70661,8.70661,0,0,1,1.05292-.58971c1.73193-.68277,3.07964-1.98478,4.6818-2.87266,1.30928-.62191,2.50452-1.47018,3.87645-1.97054,0.31058-.11327.72984-0.32606,0.88261,0.05374,0.15609,0.388-.34783.43009-0.59907,0.5506-1.52975.73376-3.06908,1.4475-4.6052,2.16792l0.09367,0.21589c1.12422-.44164,2.24725-0.8864,3.37341-1.323,0.34091-.13218.809-0.30536,0.9707,0.085,0.1516,0.366-.39866.36079-0.62472,0.53373-0.09811.075-.218,0.09855-0.18611,0.22038,0.196,0.40617.70749-.13718,0.9,0.42536a8.77957,8.77957,0,0,1-2.4877,1.07327c-0.83817.11293-1.23209,0.73559-1.80874,1.56548a5.87622,5.87622,0,0,1,1.96417-.27926c0.20248-.02514.50671,0.06205,0.53979-0.22858,0.15666-1.37695,1.53558-1.52744,2.34375-2.04923a6.73954,6.73954,0,0,1,4.81042-.85462c0.62511,0.10683,1.44247.14078,1.6185-.49749,0.15447-.56032-0.47548-1.06872-1.04145-1.373-0.2336-.12559-0.58673-0.1445-0.52472-0.53552a0.74625,0.74625,0,0,1,.64384-0.59595,5.06852,5.06852,0,0,0,1.95124-1.01911,0.7933,0.7933,0,0,0,.5221-0.87746,0.88908,0.88908,0,0,0-.88814-0.35451,7.60814,7.60814,0,0,0-1.91516.30316,0.62929,0.62929,0,0,1-.80671-0.27149,0.61613,0.61613,0,0,1,.34917-0.77,2.674,2.674,0,0,0,.61853-0.54975c0.31427-.47728.924-1.07893,0.50876-1.55076-0.4023-.45716-1.12071-0.11909-1.69993.17539-2.54095,1.29188-4.85084,3.01045-7.52257,4.05911-1.65843.65093-3.05055,1.84-4.7699,2.37156a0.29323,0.29323,0,0,0-.23221.35088c0.06752,0.27029.31568,0.18616,0.45424,0.13374,0.54787-.20732,1.07043-0.48295,1.62128-0.68064,1.525-.5473,2.78411-1.74211,4.495-1.83814,0.23424-.01313.51386-0.196,0.64894,0.11015a0.54373,0.54373,0,0,1-.30571.67881,9.12045,9.12045,0,0,1-2.41821,1.14208C59.94873,55.65049,59.38413,55.92794,59.93246,56.8077ZM61.70322,4.71c-0.43471,0-.86943-0.00177-1.30414.00032a3.42763,3.42763,0,0,0-3.12294,2.09085,11.659,11.659,0,0,0-.785,4.15642,12.554,12.554,0,0,0,4.15069,8.23964c1.894,1.85983,4.22628,3.27923,5.77051,5.47,0.79891,1.13339,1.36348.6466,2.16239,0.14941a33.13681,33.13681,0,0,0,7.9377-6.29741,15.81964,15.81964,0,0,0,2.90045-3.824,8.07932,8.07932,0,0,1,.51662-1.8655,11.30957,11.30957,0,0,0,1.31174-3.23729,4.8374,4.8374,0,0,0-1.55135-4.55721,7.55541,7.55541,0,0,0-9.22925.17181,3.69047,3.69047,0,0,1-3.64857.53529A11.76443,11.76443,0,0,0,61.70322,4.71ZM43.13582,93.61963a2.95993,2.95993,0,0,0,3.38572-1.62038c1.095-1.82335,1.44-3.91833,2.07309-5.90857,0.09481-.298-0.00084-0.40431-0.31521-0.33023a4.99268,4.99268,0,0,1-.99531.18251,1.07934,1.07934,0,0,0-1.16647.9726,8.88325,8.88325,0,0,1-3.27179,5.1164c-0.43713.31715-1.223,0.67459-1.03392,1.26731C42.02471,93.96622,42.85735,93.549,43.13582,93.61963Zm11.8595-32.96107a7.21763,7.21763,0,0,1,.92686-0.07061c0.97849,0.07419,1.5165-.78592,2.3305-1.079,1.2727-.45828,2.50393-1.03174,3.90973-1.62234C61.17008,57.77788,56.07348,59.76566,54.99532,60.65856ZM51.337,43.32924c-1.25238.27238-5.134,3.25252-5.35895,4.05913C48.00562,46.39763,49.52676,44.76787,51.337,43.32924ZM61.78672,65.24992a4.6004,4.6004,0,0,0,4.87315.35917ZM45.97248,41.12258a3.41611,3.41611,0,0,0-2.3089.49823A8.16455,8.16455,0,0,0,42.353,43.661C43.34879,42.3562,44.90315,42.274,45.97248,41.12258Zm-1.73954,2.49618c1.65971-.3448,3.09139-0.96251,3.348-3.0169C46.45163,41.674,45.60827,42.94444,44.23294,43.61876ZM69.80166,27.84145a1.05188,1.05188,0,0,0,1.23278-.752c0.09005-.19771.21892-0.53754-0.046-0.67447a1.318,1.318,0,0,0-1.408.39413,0.57107,0.57107,0,0,0-.134.12585c-0.17783.23452-.65336,0.33051-0.54375,0.66063A0.85481,0.85481,0,0,0,69.80166,27.84145ZM61.638,61.55577a15.139,15.139,0,0,0-4.3403.04268A8.00831,8.00831,0,0,0,61.638,61.55577ZM42.9059,46.72a2.64953,2.64953,0,0,0,.867-0.43086c0.53562-.149.68869-1.31532,1.56073-0.586,0.08734,0.073.164-.13249,0.19319-0.24926a2.489,2.489,0,0,0,.09859-1.128C44.63882,45.09922,43.44308,45.45793,42.9059,46.72Zm16.27718,5.4828a4.50811,4.50811,0,0,0-2.619,1.39974c-0.11093.102-.21949,0.22734-0.06572,0.39017a0.2422,0.2422,0,0,0,.32932.00384A9.824,9.824,0,0,0,59.18308,52.20277Zm-4.8991-11.295A6.31117,6.31117,0,0,0,52.014,41.981c-0.18782.1256-.456,0.25534-0.23483,0.58184,0.24874,0.3672.51011,0.15554,0.70346-.00949C53.05963,42.06091,53.6059,41.53255,54.284,40.90781Zm2.032,13.66041c0.05773-.41353-0.23717-0.42924-0.5183-0.4578-0.70951-.072-0.73876.62372-1.03451,0.98373-0.151.18379,0.24045,0.3207,0.41108,0.31523A1.03678,1.03678,0,0,0,56.31594,54.56822Zm-6.5632-3.18861A9.81015,9.81015,0,0,0,52.95906,49.415C51.91392,50.1078,50.53109,50.25854,49.75274,51.37961ZM55.5466,44.46a6.31471,6.31471,0,0,0-2.497,1.99657A6.62836,6.62836,0,0,0,55.5466,44.46ZM44.11214,34.11543l-0.12167-.19929a9.35076,9.35076,0,0,0-1.76676,1.01977c-0.14723.12456-.52135,0.15072-0.373,0.40835a0.46024,0.46024,0,0,0,.71741.01167C43.08653,34.9472,43.59789,34.52948,44.11214,34.11543Zm22.55839-6.87718c-0.8918.18721-1.66626,0.05092-2.225,0.68493C65.19855,27.98285,66.042,28.36562,66.67053,27.23826Zm-13.049,30.49147,2.39933-1.64894a1.40394,1.40394,0,0,0-1.06255-.02143C54.83948,56.82881,53.92252,56.838,53.62154,57.72972Zm-3.56332-18.263a2.23035,2.23035,0,0,0-1.55379,1.76548A6.4119,6.4119,0,0,0,50.05822,39.46676Zm-7.08662-.75505a4.59514,4.59514,0,0,0,1.90373-1.79553A5.14688,5.14688,0,0,0,42.9716,38.71171Zm3.19856,2.425a3.29889,3.29889,0,0,0,1.40717-1.38777A1.725,1.725,0,0,0,46.17016,41.13668Z"/><path d="M31.93821,42.95431A3.10567,3.10567,0,0,1,29.26769,40.648a1.03569,1.03569,0,0,1,1.41482-1.032,2.44141,2.44141,0,0,1,1.93184,2.53177A0.67832,0.67832,0,0,1,31.93821,42.95431Z"/><path d="M33.6769,37.04641A2.053,2.053,0,0,1,35.241,38.98683c-0.10462.35443-.32112,0.54224-0.66164,0.2019q-0.6226-.62224-1.23592-1.2538A0.45592,0.45592,0,0,1,33.153,37.3745,0.981,0.981,0,0,1,33.6769,37.04641Z"/><path d="M30.5861,32.82719a15.14644,15.14644,0,0,1-1.26988-3.78084c-0.05063-.21008-0.18923-0.54306.15006-0.62793,0.35192-.088.33146,0.22552,0.39048,0.47338,0.2758,1.15829.57994,2.30981,0.87207,3.46423C30.7729,32.53023,30.84135,32.71663,30.5861,32.82719Z"/><path d="M51.70249,51.92292a1.76812,1.76812,0,0,1-1.36672.89341c-0.61266.10924-.58454-0.17765-0.32486-0.57768l-0.04009.03511c0.64867,0.23355,1.059-.52209,1.67962-0.40476Z"/><path d="M78.987,9.421a1.47611,1.47611,0,0,1-1.069,1.62636,1.39439,1.39439,0,0,1-1.66872-.98057,4.23865,4.23865,0,0,0-1.61-1.59314,1.40041,1.40041,0,0,1-.64794-1.24758c0.04748-1.04556.40045-1.2415,1.33717-.82628,0.53282,0.23619,1.10416.3847,1.65584,0.5793A3.31317,3.31317,0,0,1,78.987,9.421ZM74.94217,7.09442L74.7487,7.2709c0.68636,0.77372,1.36694,1.5527,2.06216,2.31839,0.25368,0.27942.51,0.75307,0.96066,0.3994a0.8722,0.8722,0,0,0,.03783-1.17523C77.21995,7.58594,75.98041,7.52167,74.94217,7.09442Z"/></svg>
